<?xml version="1.0" standalone="yes"?>

<svg version="1.1" viewBox="0.0 0.0 568.501312335958 175.501312335958" fill="none" stroke="none" stroke-linecap="square" stroke-miterlimit="10" xmlns="http://www.w3.org/2000/svg" xmlns:xlink="http://www.w3.org/1999/xlink"><clipPath id="p.0"><path d="m0 0l568.50134 0l0 175.50131l-568.50134 0l0 -175.50131z" clip-rule="nonzero"></path></clipPath><g clip-path="url(#p.0)"><path fill="#000000" fill-opacity="0.0" d="m0 0l568.50134 0l0 175.50131l-568.50134 0z" fill-rule="evenodd"></path><path fill="#666666" d="m64.49968 64.0l47.00064 0c0.13252258 0 0.25962067 0.052642822 0.3533249 0.14635468c0.09371185 0.09370422 0.14635468 0.2208023 0.14635468 0.3533249l0 23.50032l0 0c0 13.254837 -10.745163 24.0 -24.0 24.0l0 0l0 0c-13.254837 0 -24.0 -10.745163 -24.0 -24.0l0 -23.50032l0 0c0 -0.27596283 0.22371674 -0.49967957 0.49967957 -0.49967957z" fill-rule="evenodd"></path><path stroke="#000000" stroke-width="1.0" stroke-linejoin="round" stroke-linecap="butt" d="m64.49968 64.0l47.00064 0c0.13252258 0 0.25962067 0.052642822 0.3533249 0.14635468c0.09371185 0.09370422 0.14635468 0.2208023 0.14635468 0.3533249l0 23.50032l0 0c0 13.254837 -10.745163 24.0 -24.0 24.0l0 0l0 0c-13.254837 0 -24.0 -10.745163 -24.0 -24.0l0 -23.50032l0 0c0 -0.27596283 0.22371674 -0.49967957 0.49967957 -0.49967957z" fill-rule="evenodd"></path><path fill="#efefef" d="m82.6854 91.47849l0 -13.59375l2.75 0l0 6.03125l5.546875 -6.03125l3.6875 0l-5.125 5.296875l5.40625 8.296875l-3.5625 0l-3.734375 -6.390625l-2.21875 2.28125l0 4.109375l-2.75 0z" fill-rule="nonzero"></path><path fill="#666666" d="m64.0 8.020956l48.0 0l0 47.968506l-48.0 0z" fill-rule="evenodd"></path><path stroke="#000000" stroke-width="1.0" stroke-linejoin="round" stroke-linecap="butt" d="m64.0 8.020956l48.0 0l0 47.968506l-48.0 0z" fill-rule="evenodd"></path><path fill="#efefef" d="m86.73951 38.925205l0 -11.296873l-4.03125 0l0 -2.296875l10.8125 0l0 2.296875l-4.03125 0l0 11.296873l-2.75 0z" fill-rule="nonzero"></path><path fill="#666666" d="m120.99837 64.0l46.507202 0c0.13113403 0 0.25689697 0.052093506 0.34960938 0.14481354c0.09272766 0.09272766 0.14482117 0.2184906 0.14482117 0.349617l0 23.757538l0 0c0 13.115677 -10.632355 23.748032 -23.748032 23.748032l0 0l0 0c-13.115677 0 -23.748032 -10.632355 -23.748032 -23.748032l0 -23.757538l0 0c0 -0.27306366 0.22136688 -0.49443054 0.49443054 -0.49443054z" fill-rule="evenodd"></path><path stroke="#000000" stroke-width="1.0" stroke-linejoin="round" stroke-linecap="butt" d="m120.99837 64.0l46.507202 0c0.13113403 0 0.25689697 0.052093506 0.34960938 0.14481354c0.09272766 0.09272766 0.14482117 0.2184906 0.14482117 0.349617l0 23.757538l0 0c0 13.115677 -10.632355 23.748032 -23.748032 23.748032l0 0l0 0c-13.115677 0 -23.748032 -10.632355 -23.748032 -23.748032l0 -23.757538l0 0c0 -0.27306366 0.22136688 -0.49443054 0.49443054 -0.49443054z" fill-rule="evenodd"></path><path fill="#efefef" d="m139.772 91.514626l-3.25 -13.59375l2.8125 0l2.046875 9.328125l2.484375 -9.328125l3.265625 0l2.390625 9.5l2.09375 -9.5l2.765625 0l-3.3125 13.59375l-2.90625 0l-2.71875 -10.171875l-2.6875 10.171875l-2.984375 0z" fill-rule="nonzero"></path><path fill="#666666" d="m120.0 8.0l48.0 0l0 48.0l-48.0 0z" fill-rule="evenodd"></path><path stroke="#000000" stroke-width="1.0" stroke-linejoin="round" stroke-linecap="butt" d="m120.0 8.0l48.0 0l0 48.0l-48.0 0z" fill-rule="evenodd"></path><path fill="#efefef" d="m139.15321 38.92l0 -13.59375l4.421875 0q2.5 0 3.265625 0.203125q1.15625 0.296875 1.9375 1.328125q0.796875 1.015625 0.796875 2.640625q0 1.25 -0.453125 2.109375q-0.453125 0.859375 -1.15625 1.34375q-0.703125 0.484375 -1.421875 0.640625q-0.984375 0.203125 -2.84375 0.203125l-1.796875 0l0 5.125l-2.75 0zm2.75 -11.296875l0 3.859375l1.5 0q1.625 0 2.171875 -0.21875q0.546875 -0.21875 0.859375 -0.671875q0.3125 -0.453125 0.3125 -1.046875q0 -0.75 -0.4375 -1.234375q-0.4375 -0.484375 -1.09375 -0.59375q-0.5 -0.09375 -1.984375 -0.09375l-1.328125 0z" fill-rule="nonzero"></path><path fill="#666666" d="m176.49968 64.0l47.06363 0c0.13252258 0 0.2596283 0.052642822 0.35333252 0.14635468c0.09370422 0.09370422 0.14634705 0.2208023 0.14634705 0.3533249l0 23.50032l0 0c0 13.254837 -10.745163 24.0 -24.0 24.0l-0.06298828 0l0 0c-13.254837 0 -24.0 -10.745163 -24.0 -24.0l0 -23.50032l0 0c0 -0.27596283 0.2237091 -0.49967957 0.49967957 -0.49967957z" fill-rule="evenodd"></path><path stroke="#000000" stroke-width="1.0" stroke-linejoin="round" stroke-linecap="butt" d="m176.49968 64.0l47.06363 0c0.13252258 0 0.2596283 0.052642822 0.35333252 0.14635468c0.09370422 0.09370422 0.14634705 0.2208023 0.14634705 0.3533249l0 23.50032l0 0c0 13.254837 -10.745163 24.0 -24.0 24.0l-0.06298828 0l0 0c-13.254837 0 -24.0 -10.745163 -24.0 -24.0l0 -23.50032l0 0c0 -0.27596283 0.2237091 -0.49967957 0.49967957 -0.49967957z" fill-rule="evenodd"></path><path fill="#efefef" d="m194.68565 91.47849l0 -13.59375l5.78125 0q2.1875 0 3.171875 0.359375q0.984375 0.359375 1.578125 1.296875q0.59375 0.9375 0.59375 2.15625q0 1.53125 -0.90625 2.53125q-0.890625 0.984375 -2.6875 1.25q0.890625 0.515625 1.46875 1.140625q0.578125 0.625 1.5625 2.203125l1.671875 2.65625l-3.296875 0l-1.984375 -2.953125q-1.046875 -1.59375 -1.4375 -2.0q-0.390625 -0.421875 -0.828125 -0.5625q-0.4375 -0.15625 -1.390625 -0.15625l-0.546875 0l0 5.671875l-2.75 0zm2.75 -7.84375l2.03125 0q1.96875 0 2.453125 -0.171875q0.5 -0.171875 0.78125 -0.578125q0.28125 -0.40625 0.28125 -1.015625q0 -0.6875 -0.375 -1.109375q-0.359375 -0.421875 -1.03125 -0.53125q-0.328125 -0.046875 -2.0 -0.046875l-2.140625 0l0 3.453125z" fill-rule="nonzero"></path><path fill="#666666" d="m176.0 8.0l48.06299 0l0 48.0l-48.06299 0z" fill-rule="evenodd"></path><path stroke="#000000" stroke-width="1.0" stroke-linejoin="round" stroke-linecap="butt" d="m176.0 8.0l48.06299 0l0 48.0l-48.06299 0z" fill-rule="evenodd"></path><path fill="#efefef" d="m194.68565 38.92l0 -13.59375l2.75 0l0 5.34375l5.375 0l0 -5.34375l2.75 0l0 13.59375l-2.75 0l0 -5.953125l-5.375 0l0 5.953125l-2.75 0z" fill-rule="nonzero"></path><path fill="#666666" d="m288.4997 64.0l47.00064 0c0.13250732 0 0.25961304 0.052642822 0.353302 0.14635468c0.09371948 0.09370422 0.1463623 0.2208023 0.1463623 0.3533249l0 23.50032l0 0c0 13.254837 -10.745178 24.0 -24.0 24.0l0 0l0 0c-13.254822 0 -24.0 -10.745163 -24.0 -24.0l0 -23.50032l0 0c0 -0.27596283 0.22372437 -0.49967957 0.49969482 -0.49967957z" fill-rule="evenodd"></path><path stroke="#000000" stroke-width="1.0" stroke-linejoin="round" stroke-linecap="butt" d="m288.4997 64.0l47.00064 0c0.13250732 0 0.25961304 0.052642822 0.353302 0.14635468c0.09371948 0.09370422 0.1463623 0.2208023 0.1463623 0.3533249l0 23.50032l0 0c0 13.254837 -10.745178 24.0 -24.0 24.0l0 0l0 0c-13.254822 0 -24.0 -10.745163 -24.0 -24.0l0 -23.50032l0 0c0 -0.27596283 0.22372437 -0.49967957 0.49969482 -0.49967957z" fill-rule="evenodd"></path><path fill="#efefef" d="m306.65414 91.47849l0 -13.59375l5.78125 0q2.1875 0 3.171875 0.359375q0.984375 0.359375 1.578125 1.296875q0.59375 0.9375 0.59375 2.15625q0 1.53125 -0.90625 2.53125q-0.890625 0.984375 -2.6875 1.25q0.890625 0.515625 1.46875 1.140625q0.578125 0.625 1.5625 2.203125l1.671875 2.65625l-3.296875 0l-1.984375 -2.953125q-1.046875 -1.59375 -1.4375 -2.0q-0.390625 -0.421875 -0.828125 -0.5625q-0.4375 -0.15625 -1.390625 -0.15625l-0.546875 0l0 5.671875l-2.75 0zm2.75 -7.84375l2.03125 0q1.96875 0 2.453125 -0.171875q0.5 -0.171875 0.78125 -0.578125q0.28125 -0.40625 0.28125 -1.015625q0 -0.6875 -0.375 -1.109375q-0.359375 -0.421875 -1.03125 -0.53125q-0.328125 -0.046875 -2.0 -0.046875l-2.140625 0l0 3.453125z" fill-rule="nonzero"></path><path fill="#666666" d="m288.0 8.0l48.0 0l0 48.0l-48.0 0z" fill-rule="evenodd"></path><path stroke="#000000" stroke-width="1.0" stroke-linejoin="round" stroke-linecap="butt" d="m288.0 8.0l48.0 0l0 48.0l-48.0 0z" fill-rule="evenodd"></path><path fill="#efefef" d="m307.70825 38.92l0 -13.59375l9.3125 0l0 2.296875l-6.578125 0l0 3.21875l5.6875 0l0 2.296875l-5.6875 0l0 5.78125l-2.734375 0z" fill-rule="nonzero"></path><path fill="#666666" d="m344.49576 64.0l47.06363 0c0.13250732 0 0.25961304 0.052642822 0.353302 0.14635468c0.09371948 0.09370422 0.1463623 0.2208023 0.1463623 0.3533249l0 23.50032l0 0c0 13.254837 -10.745148 24.0 -24.0 24.0l-0.06298828 0l0 0c-13.254822 0 -24.0 -10.745163 -24.0 -24.0l0 -23.50032l0 0c0 -0.27596283 0.22372437 -0.49967957 0.49969482 -0.49967957z" fill-rule="evenodd"></path><path stroke="#000000" stroke-width="1.0" stroke-linejoin="round" stroke-linecap="butt" d="m344.49576 64.0l47.06363 0c0.13250732 0 0.25961304 0.052642822 0.353302 0.14635468c0.09371948 0.09370422 0.1463623 0.2208023 0.1463623 0.3533249l0 23.50032l0 0c0 13.254837 -10.745148 24.0 -24.0 24.0l-0.06298828 0l0 0c-13.254822 0 -24.0 -10.745163 -24.0 -24.0l0 -23.50032l0 0c0 -0.27596283 0.22372437 -0.49967957 0.49969482 -0.49967957z" fill-rule="evenodd"></path><path fill="#efefef" d="m362.6817 77.88474l5.4375 0q1.609375 0 2.40625 0.140625q0.796875 0.125 1.421875 0.546875q0.625 0.421875 1.03125 1.140625q0.421875 0.703125 0.421875 1.59375q0 0.953125 -0.515625 1.75q-0.5 0.796875 -1.390625 1.1875q1.25 0.375 1.90625 1.25q0.671875 0.859375 0.671875 2.046875q0 0.921875 -0.4375 1.796875q-0.421875 0.875 -1.171875 1.40625q-0.75 0.515625 -1.84375 0.640625q-0.6875 0.078125 -3.3125 0.09375l-4.625 0l0 -13.59375zm2.75 2.25l0 3.15625l1.796875 0q1.609375 0 2.0 -0.046875q0.703125 -0.09375 1.09375 -0.484375q0.40625 -0.40625 0.40625 -1.0625q0 -0.640625 -0.34375 -1.03125q-0.34375 -0.390625 -1.03125 -0.484375q-0.40625 -0.046875 -2.34375 -0.046875l-1.578125 0zm0 5.421875l0 3.625l2.546875 0q1.484375 0 1.875 -0.078125q0.609375 -0.109375 1.0 -0.53125q0.390625 -0.4375 0.390625 -1.171875q0 -0.609375 -0.296875 -1.03125q-0.296875 -0.421875 -0.859375 -0.609375q-0.5625 -0.203125 -2.4375 -0.203125l-2.21875 0z" fill-rule="nonzero"></path><path fill="#666666" d="m343.99606 8.083456l48.06299 0l0 47.90551l-48.06299 0z" fill-rule="evenodd"></path><path stroke="#000000" stroke-width="1.0" stroke-linejoin="round" stroke-linecap="butt" d="m343.99606 8.083456l48.06299 0l0 47.90551l-48.06299 0z" fill-rule="evenodd"></path><path fill="#efefef" d="m363.1808 38.956207l0 -13.593748l4.421875 0q2.5 0 3.265625 0.203125q1.15625 0.296875 1.9375 1.328125q0.796875 1.015625 0.796875 2.640625q0 1.25 -0.453125 2.109375q-0.453125 0.8593731 -1.15625 1.3437481q-0.703125 0.484375 -1.421875 0.640625q-0.984375 0.203125 -2.84375 0.203125l-1.796875 0l0 5.125l-2.75 0zm2.75 -11.296873l0 3.859375l1.5 0q1.625 0 2.171875 -0.21875q0.546875 -0.21875 0.859375 -0.671875q0.3125 -0.453125 0.3125 -1.046875q0 -0.75 -0.4375 -1.234375q-0.4375 -0.484375 -1.09375 -0.59375q-0.5 -0.09375 -1.984375 -0.09375l-1.328125 0z" fill-rule="nonzero"></path><path fill="#666666" d="m400.4997 64.0l47.032135 0c0.13250732 0 0.25961304 0.052642822 0.353302 0.14635468c0.09371948 0.09370422 0.1463623 0.2208023 0.1463623 0.3533249l0 23.50032l0 0c0 13.254837 -10.745178 24.0 -24.0 24.0l-0.03149414 0l0 0c-13.254822 0 -24.0 -10.745163 -24.0 -24.0l0 -23.50032l0 0c0 -0.27596283 0.22372437 -0.49967957 0.49969482 -0.49967957z" fill-rule="evenodd"></path><path stroke="#000000" stroke-width="1.0" stroke-linejoin="round" stroke-linecap="butt" d="m400.4997 64.0l47.032135 0c0.13250732 0 0.25961304 0.052642822 0.353302 0.14635468c0.09371948 0.09370422 0.1463623 0.2208023 0.1463623 0.3533249l0 23.50032l0 0c0 13.254837 -10.745178 24.0 -24.0 24.0l-0.03149414 0l0 0c-13.254822 0 -24.0 -10.745163 -24.0 -24.0l0 -23.50032l0 0c0 -0.27596283 0.22372437 -0.49967957 0.49969482 -0.49967957z" fill-rule="evenodd"></path><path fill="#efefef" d="m424.46317 86.47849l0 -2.296875l5.921875 0l0 5.421875q-0.859375 0.828125 -2.5 1.46875q-1.640625 0.640625 -3.3125 0.640625q-2.140625 0 -3.734375 -0.890625q-1.578125 -0.90625 -2.375 -2.5625q-0.796875 -1.671875 -0.796875 -3.625q0 -2.125 0.890625 -3.78125q0.890625 -1.65625 2.609375 -2.53125q1.3125 -0.671875 3.25 -0.671875q2.546875 0 3.96875 1.0625q1.421875 1.0625 1.828125 2.9375l-2.734375 0.5q-0.28125 -1.0 -1.078125 -1.578125q-0.796875 -0.578125 -1.984375 -0.578125q-1.796875 0 -2.859375 1.140625q-1.0625 1.140625 -1.0625 3.390625q0 2.421875 1.078125 3.640625q1.078125 1.203125 2.828125 1.203125q0.859375 0 1.71875 -0.34375q0.875 -0.34375 1.5 -0.828125l0 -1.71875l-3.15625 0z" fill-rule="nonzero"></path><path fill="#666666" d="m400.0 8.0l48.031494 0l0 48.0l-48.031494 0z" fill-rule="evenodd"></path><path stroke="#000000" stroke-width="1.0" stroke-linejoin="round" stroke-linecap="butt" d="m400.0 8.0l48.031494 0l0 48.0l-48.031494 0z" fill-rule="evenodd"></path><path fill="#efefef" d="m419.77087 38.92l0 -13.484375l2.75 0l0 11.1875l6.828125 0l0 2.296875l-9.578125 0z" fill-rule="nonzero"></path><path fill="#666666" d="m456.49576 64.0l47.032135 0c0.13250732 0 0.25961304 0.052642822 0.353302 0.14635468c0.09371948 0.09370422 0.1463623 0.2208023 0.1463623 0.3533249l0 23.50032l0 0c0 13.254837 -10.745178 24.0 -24.0 24.0l-0.03149414 0l0 0c-13.254822 0 -24.0 -10.745163 -24.0 -24.0l0 -23.50032l0 0c0 -0.27596283 0.22372437 -0.49967957 0.49969482 -0.49967957z" fill-rule="evenodd"></path><path stroke="#000000" stroke-width="1.0" stroke-linejoin="round" stroke-linecap="butt" d="m456.49576 64.0l47.032135 0c0.13250732 0 0.25961304 0.052642822 0.353302 0.14635468c0.09371948 0.09370422 0.1463623 0.2208023 0.1463623 0.3533249l0 23.50032l0 0c0 13.254837 -10.745178 24.0 -24.0 24.0l-0.03149414 0l0 0c-13.254822 0 -24.0 -10.745163 -24.0 -24.0l0 -23.50032l0 0c0 -0.27596283 0.22372437 -0.49967957 0.49969482 -0.49967957z" fill-rule="evenodd"></path><path fill="#efefef" d="m474.47754 87.05662l2.671875 -0.265625q0.234375 1.34375 0.96875 1.984375q0.75 0.625 2.0 0.625q1.328125 0 2.0 -0.5625q0.671875 -0.5625 0.671875 -1.3125q0 -0.484375 -0.28125 -0.8125q-0.28125 -0.34375 -0.984375 -0.59375q-0.484375 -0.171875 -2.203125 -0.59375q-2.203125 -0.546875 -3.09375 -1.34375q-1.265625 -1.125 -1.265625 -2.734375q0 -1.046875 0.59375 -1.953125q0.59375 -0.90625 1.703125 -1.375q1.109375 -0.46875 2.671875 -0.46875q2.5625 0 3.859375 1.125q1.296875 1.109375 1.359375 2.984375l-2.75 0.125q-0.171875 -1.046875 -0.75 -1.5q-0.578125 -0.46875 -1.75 -0.46875q-1.1875 0 -1.875 0.5q-0.4375 0.3125 -0.4375 0.84375q0 0.484375 0.421875 0.828125q0.515625 0.421875 2.515625 0.90625q2.0 0.46875 2.953125 0.984375q0.96875 0.5 1.515625 1.375q0.546875 0.875 0.546875 2.15625q0 1.171875 -0.65625 2.203125q-0.640625 1.015625 -1.828125 1.515625q-1.1875 0.484375 -2.96875 0.484375q-2.578125 0 -3.96875 -1.1875q-1.375 -1.1875 -1.640625 -3.46875z" fill-rule="nonzero"></path><path fill="#666666" d="m455.99606 8.0l48.031494 0l0 48.0l-48.031494 0z" fill-rule="evenodd"></path><path stroke="#000000" stroke-width="1.0" stroke-linejoin="round" stroke-linecap="butt" d="m455.99606 8.0l48.031494 0l0 48.0l-48.031494 0z" fill-rule="evenodd"></path><path fill="#efefef" d="m478.7513 38.92l0 -11.296875l-4.03125 0l0 -2.296875l10.8125 0l0 2.296875l-4.03125 0l0 11.296875l-2.75 0z" fill-rule="nonzero"></path><path fill="#666666" d="m512.4997 64.0l47.032104 0c0.13256836 0 0.25964355 0.052642822 0.35333252 0.14635468c0.09375 0.09370422 0.1463623 0.2208023 0.1463623 0.3533249l0 23.50032l0 0c0 13.254837 -10.745178 24.0 -24.0 24.0l-0.03149414 0l0 0c-13.254822 0 -24.0 -10.745163 -24.0 -24.0l0 -23.50032l0 0c0 -0.27596283 0.22369385 -0.49967957 0.49969482 -0.49967957z" fill-rule="evenodd"></path><path stroke="#000000" stroke-width="1.0" stroke-linejoin="round" stroke-linecap="butt" d="m512.4997 64.0l47.032104 0c0.13256836 0 0.25964355 0.052642822 0.35333252 0.14635468c0.09375 0.09370422 0.1463623 0.2208023 0.1463623 0.3533249l0 23.50032l0 0c0 13.254837 -10.745178 24.0 -24.0 24.0l-0.03149414 0l0 0c-13.254822 0 -24.0 -10.745163 -24.0 -24.0l0 -23.50032l0 0c0 -0.27596283 0.22369385 -0.49967957 0.49969482 -0.49967957z" fill-rule="evenodd"></path><path fill="#efefef" d="m530.5209 91.47849l0 -2.484375l7.140625 -8.8125l-6.328125 0l0 -2.296875l9.953125 0l0 2.125l-7.453125 9.171875l7.734375 0l0 2.296875l-11.046875 0z" fill-rule="nonzero"></path><path fill="#666666" d="m512.0 8.0l48.031494 0l0 48.0l-48.031494 0z" fill-rule="evenodd"></path><path stroke="#000000" stroke-width="1.0" stroke-linejoin="round" stroke-linecap="butt" d="m512.0 8.0l48.031494 0l0 48.0l-48.031494 0z" fill-rule="evenodd"></path><path fill="#efefef" d="m530.6543 25.326248l5.015625 0q1.703125 0 2.59375 0.25q1.1875 0.359375 2.046875 1.265625q0.859375 0.890625 1.296875 2.203125q0.453125 1.296875 0.453125 3.203125q0 1.6875 -0.421875 2.890625q-0.515625 1.484375 -1.453125 2.40625q-0.71875 0.703125 -1.9375 1.09375q-0.90625 0.28125 -2.421875 0.28125l-5.171875 0l0 -13.59375zm2.75 2.296875l0 9.0l2.046875 0q1.140625 0 1.65625 -0.125q0.671875 -0.171875 1.109375 -0.5625q0.4375 -0.40625 0.71875 -1.3125q0.28125 -0.921875 0.28125 -2.5q0 -1.578125 -0.28125 -2.421875q-0.28125 -0.84375 -0.78125 -1.3125q-0.5 -0.46875 -1.265625 -0.640625q-0.578125 -0.125 -2.25 -0.125l-1.234375 0z" fill-rule="nonzero"></path><path fill="#666666" d="m232.50002 8.0l47.03148 0c0.13259888 0 0.25979614 0.052679062 0.35354614 0.14644909c0.09378052 0.09376907 0.14645386 0.22094822 0.14645386 0.35355854l0 79.48424c0 13.263535 -10.752228 24.015747 -24.015747 24.015747l0 0l0 0c-13.263535 0 -24.015747 -10.752213 -24.015747 -24.015747l0 -79.48424l0 0c0 -0.2761469 0.2238617 -0.5000076 0.50001526 -0.5000076z" fill-rule="evenodd"></path><path stroke="#000000" stroke-width="1.0" stroke-linejoin="round" stroke-linecap="butt" d="m232.50002 8.0l47.03148 0c0.13259888 0 0.25979614 0.052679062 0.35354614 0.14644909c0.09378052 0.09376907 0.14645386 0.22094822 0.14645386 0.35355854l0 79.48424c0 13.263535 -10.752228 24.015747 -24.015747 24.015747l0 0l0 0c-13.263535 0 -24.015747 -10.752213 -24.015747 -24.015747l0 -79.48424l0 0c0 -0.2761469 0.2238617 -0.5000076 0.50001526 -0.5000076z" fill-rule="evenodd"></path><path fill="#efefef" d="m253.61731 55.901234l-2.359375 -1.828125q1.125 -1.265625 2.34375 -2.421875q0.484375 -0.46875 0.609375 -0.59375q-0.390625 -0.0625 -2.234375 -0.515625q-1.328125 -0.328125 -1.75 -0.484375l0.921875 -2.75q2.046875 0.828125 3.65625 1.828125q-0.375 -2.546875 -0.375 -4.15625l2.78125 0q0 1.140625 -0.421875 4.1875q0.3125 -0.125 1.34375 -0.609375q1.40625 -0.640625 2.59375 -1.09375l0.828125 2.828125q-1.734375 0.390625 -4.015625 0.765625l1.875 2.109375q0.5625 0.640625 0.890625 1.046875l-2.390625 1.578125l-2.109375 -3.484375q-0.953125 1.6875 -2.1875 3.59375z" fill-rule="nonzero"></path><path fill="#666666" d="m8.500336 8.0l47.06232 0c0.13269806 0 0.25996017 0.052713394 0.3537941 0.14654541c0.09383011 0.09383106 0.1465416 0.22109318 0.1465416 0.35379028l0 79.46816c0 13.272232 -10.759266 24.031494 -24.031494 24.031494l0 0l0 0c-13.27223 0 -24.031498 -10.759262 -24.031498 -24.031494l0 -79.46816l0 0c0 -0.2763281 0.2240076 -0.5003357 0.5003357 -0.5003357z" fill-rule="evenodd"></path><path stroke="#000000" stroke-width="1.0" stroke-linejoin="round" stroke-linecap="butt" d="m8.500336 8.0l47.06232 0c0.13269806 0 0.25996017 0.052713394 0.3537941 0.14654541c0.09383011 0.09383106 0.1465416 0.22109318 0.1465416 0.35379028l0 79.46816c0 13.272232 -10.759266 24.031494 -24.031494 24.031494l0 0l0 0c-13.27223 0 -24.031498 -10.759262 -24.031498 -24.031494l0 -79.46816l0 0c0 -0.2763281 0.2240076 -0.5003357 0.5003357 -0.5003357z" fill-rule="evenodd"></path><path fill="#efefef" d="m26.497211 59.052097l2.671875 -0.265625q0.234375 1.34375 0.96875 1.984375q0.75 0.625 2.0 0.625q1.328125 0 2.0 -0.5625q0.671875 -0.5625 0.671875 -1.3125q0 -0.484375 -0.28125 -0.8125q-0.28125 -0.34375 -0.984375 -0.59375q-0.484375 -0.171875 -2.203125 -0.59375q-2.203125 -0.546875 -3.09375 -1.34375q-1.265625 -1.125 -1.265625 -2.734375q0 -1.046875 0.59375 -1.953125q0.59375 -0.90625 1.703125 -1.375q1.109375 -0.46875 2.671875 -0.46875q2.5625 0 3.859375 1.125q1.296875 1.109375 1.359375 2.984375l-2.75 0.125q-0.171875 -1.046875 -0.75 -1.5q-0.578125 -0.46875 -1.75 -0.46875q-1.1875 0 -1.875 0.5q-0.4375 0.3125 -0.4375 0.84375q0 0.484375 0.421875 0.828125q0.515625 0.421875 2.515625 0.90625q2.0 0.46875 2.953125 0.984375q0.96875 0.5 1.515625 1.375q0.546875 0.875 0.546875 2.15625q0 1.171875 -0.65625 2.203125q-0.640625 1.015625 -1.828125 1.515625q-1.1875 0.484375 -2.96875 0.484375q-2.578125 0 -3.96875 -1.1875q-1.375 -1.1875 -1.640625 -3.46875z" fill-rule="nonzero"></path><path fill="#666666" d="m144.49443 120.0l46.507202 0c0.13113403 0 0.25689697 0.052093506 0.34960938 0.14481354c0.09272766 0.09272766 0.14482117 0.2184906 0.14482117 0.349617l0 23.726044l0 0c0 13.115677 -10.632355 23.748032 -23.748032 23.748032l0 0l0 0c-13.115677 0 -23.748032 -10.632355 -23.748032 -23.748032l0 -23.726044l0 0c0 -0.27306366 0.22135925 -0.49443054 0.49443054 -0.49443054z" fill-rule="evenodd"></path><path stroke="#000000" stroke-width="1.0" stroke-linejoin="round" stroke-linecap="butt" d="m144.49443 120.0l46.507202 0c0.13113403 0 0.25689697 0.052093506 0.34960938 0.14481354c0.09272766 0.09272766 0.14482117 0.2184906 0.14482117 0.349617l0 23.726044l0 0c0 13.115677 -10.632355 23.748032 -23.748032 23.748032l0 0l0 0c-13.115677 0 -23.748032 -10.632355 -23.748032 -23.748032l0 -23.726044l0 0c0 -0.27306366 0.22135925 -0.49443054 0.49443054 -0.49443054z" fill-rule="evenodd"></path><path fill="#efefef" d="m174.65219 147.49887l-2.984375 0l-1.1875 -3.09375l-5.4375 0l-1.125 3.09375l-2.90625 0l5.296875 -13.59375l2.90625 0l5.4375 13.59375zm-5.046875 -5.375l-1.875 -5.046875l-1.84375 5.046875l3.71875 0z" fill-rule="nonzero"></path><path fill="#666666" d="m200.99837 120.0l46.507202 0c0.13113403 0 0.25689697 0.052093506 0.34960938 0.14481354c0.09272766 0.09272766 0.14482117 0.2184906 0.14482117 0.349617l0 23.757538l0 0c0 13.115677 -10.632355 23.748032 -23.748032 23.748032l0 0l0 0c-13.115677 0 -23.748032 -10.632355 -23.748032 -23.748032l0 -23.757538l0 0c0 -0.27306366 0.22135925 -0.49443054 0.49443054 -0.49443054z" fill-rule="evenodd"></path><path stroke="#000000" stroke-width="1.0" stroke-linejoin="round" stroke-linecap="butt" d="m200.99837 120.0l46.507202 0c0.13113403 0 0.25689697 0.052093506 0.34960938 0.14481354c0.09272766 0.09272766 0.14482117 0.2184906 0.14482117 0.349617l0 23.757538l0 0c0 13.115677 -10.632355 23.748032 -23.748032 23.748032l0 0l0 0c-13.115677 0 -23.748032 -10.632355 -23.748032 -23.748032l0 -23.757538l0 0c0 -0.27306366 0.22135925 -0.49443054 0.49443054 -0.49443054z" fill-rule="evenodd"></path><path fill="#efefef" d="m217.82439 140.79587q0 -2.078125 0.625 -3.484375q0.453125 -1.046875 1.25 -1.859375q0.8125 -0.828125 1.765625 -1.234375q1.28125 -0.53125 2.9375 -0.53125q3.0 0 4.796875 1.859375q1.8125 1.859375 1.8125 5.1875q0 3.296875 -1.796875 5.15625q-1.78125 1.859375 -4.78125 1.859375q-3.03125 0 -4.828125 -1.84375q-1.78125 -1.859375 -1.78125 -5.109375zm2.828125 -0.09375q0 2.3125 1.0625 3.515625q1.078125 1.1875 2.71875 1.1875q1.640625 0 2.6875 -1.1875q1.046875 -1.1875 1.046875 -3.546875q0 -2.34375 -1.03125 -3.484375q-1.015625 -1.15625 -2.703125 -1.15625q-1.703125 0 -2.75 1.171875q-1.03125 1.15625 -1.03125 3.5z" fill-rule="nonzero"></path><path fill="#666666" d="m264.49445 120.0l46.50717 0c0.13113403 0 0.25689697 0.052093506 0.3496399 0.14481354c0.0927124 0.09272766 0.14480591 0.2184906 0.14480591 0.349617l0 23.757538l0 0c0 13.115677 -10.632355 23.748032 -23.748016 23.748032l0 0l0 0c-13.115692 0 -23.748047 -10.632355 -23.748047 -23.748032l0 -23.757538l0 0c0 -0.27306366 0.22137451 -0.49443054 0.4944458 -0.49443054z" fill-rule="evenodd"></path><path stroke="#000000" stroke-width="1.0" stroke-linejoin="round" stroke-linecap="butt" d="m264.49445 120.0l46.50717 0c0.13113403 0 0.25689697 0.052093506 0.3496399 0.14481354c0.0927124 0.09272766 0.14480591 0.2184906 0.14480591 0.349617l0 23.757538l0 0c0 13.115677 -10.632355 23.748032 -23.748016 23.748032l0 0l0 0c-13.115692 0 -23.748047 -10.632355 -23.748047 -23.748032l0 -23.757538l0 0c0 -0.27306366 0.22137451 -0.49443054 0.4944458 -0.49443054z" fill-rule="evenodd"></path><path fill="#efefef" d="m282.90125 147.51462l0 -13.59375l10.09375 0l0 2.296875l-7.34375 0l0 3.015625l6.828125 0l0 2.28125l-6.828125 0l0 3.703125l7.609375 0l0 2.296875l-10.359375 0z" fill-rule="nonzero"></path><path fill="#666666" d="m320.99838 120.0l46.50717 0c0.13113403 0 0.25689697 0.052093506 0.3496399 0.14481354c0.0927124 0.09272766 0.14480591 0.2184906 0.14480591 0.349617l0 23.757538l0 0c0 13.115677 -10.632355 23.748032 -23.748016 23.748032l0 0l0 0c-13.115692 0 -23.748047 -10.632355 -23.748047 -23.748032l0 -23.757538l0 0c0 -0.27306366 0.22137451 -0.49443054 0.4944458 -0.49443054z" fill-rule="evenodd"></path><path stroke="#000000" stroke-width="1.0" stroke-linejoin="round" stroke-linecap="butt" d="m320.99838 120.0l46.50717 0c0.13113403 0 0.25689697 0.052093506 0.3496399 0.14481354c0.0927124 0.09272766 0.14480591 0.2184906 0.14480591 0.349617l0 23.757538l0 0c0 13.115677 -10.632355 23.748032 -23.748016 23.748032l0 0l0 0c-13.115692 0 -23.748047 -10.632355 -23.748047 -23.748032l0 -23.757538l0 0c0 -0.27306366 0.22137451 -0.49443054 0.4944458 -0.49443054z" fill-rule="evenodd"></path><path fill="#efefef" d="m338.87488 133.92087l2.75 0l0 7.359375q0 1.75 0.109375 2.265625q0.171875 0.84375 0.828125 1.359375q0.671875 0.5 1.8125 0.5q1.171875 0 1.765625 -0.484375q0.59375 -0.484375 0.71875 -1.171875q0.125 -0.703125 0.125 -2.3125l0 -7.515625l2.734375 0l0 7.140625q0 2.4375 -0.21875 3.453125q-0.21875 1.015625 -0.828125 1.71875q-0.59375 0.6875 -1.59375 1.109375q-1.0 0.40625 -2.609375 0.40625q-1.953125 0 -2.96875 -0.453125q-1.0 -0.453125 -1.59375 -1.171875q-0.578125 -0.71875 -0.75 -1.5q-0.28125 -1.171875 -0.28125 -3.453125l0 -7.25z" fill-rule="nonzero"></path><path fill="#000000" fill-opacity="0.0" d="m-1.0 177.60104l588.0 0l0 90.01575l-588.0 0z" fill-rule="evenodd"></path><path fill="#000000" d="m12.921875 204.52104l0 -12.0l-4.46875 0l0 -1.59375l10.765625 0l0 1.59375l-4.5 0l0 12.0l-1.796875 0zm7.724106 0l0 -13.59375l1.671875 0l0 4.875q1.171875 -1.359375 2.953125 -1.359375q1.09375 0 1.890625 0.4375q0.8125 0.421875 1.15625 1.1875q0.359375 0.765625 0.359375 2.203125l0 6.25l-1.671875 0l0 -6.25q0 -1.25 -0.546875 -1.8125q-0.546875 -0.578125 -1.53125 -0.578125q-0.75 0 -1.40625 0.390625q-0.640625 0.375 -0.921875 1.046875q-0.28125 0.65625 -0.28125 1.8125l0 5.390625l-1.671875 0zm10.391342 -11.6875l0 -1.90625l1.671875 0l0 1.90625l-1.671875 0zm0 11.6875l0 -9.859375l1.671875 0l0 9.859375l-1.671875 0zm3.4573212 -2.9375l1.65625 -0.265625q0.140625 1.0 0.765625 1.53125q0.640625 0.515625 1.78125 0.515625q1.15625 0 1.703125 -0.46875q0.5625 -0.46875 0.5625 -1.09375q0 -0.5625 -0.484375 -0.890625q-0.34375 -0.21875 -1.703125 -0.5625q-1.84375 -0.46875 -2.5625 -0.796875q-0.703125 -0.34375 -1.078125 -0.9375q-0.359375 -0.609375 -0.359375 -1.328125q0 -0.65625 0.296875 -1.21875q0.3125 -0.5625 0.828125 -0.9375q0.390625 -0.28125 1.0625 -0.484375q0.671875 -0.203125 1.4375 -0.203125q1.171875 0 2.046875 0.34375q0.875 0.328125 1.28125 0.90625q0.421875 0.5625 0.578125 1.515625l-1.625 0.21875q-0.109375 -0.75 -0.65625 -1.171875q-0.53125 -0.4375 -1.5 -0.4375q-1.15625 0 -1.640625 0.390625q-0.484375 0.375 -0.484375 0.875q0 0.328125 0.203125 0.59375q0.203125 0.265625 0.640625 0.4375q0.25 0.09375 1.46875 0.4375q1.765625 0.46875 2.46875 0.765625q0.703125 0.296875 1.09375 0.875q0.40625 0.578125 0.40625 1.4375q0 0.828125 -0.484375 1.578125q-0.484375 0.734375 -1.40625 1.140625q-0.921875 0.390625 -2.078125 0.390625q-1.921875 0 -2.9375 -0.796875q-1.0 -0.796875 -1.28125 -2.359375zm21.573929 2.9375l0 -1.25q-0.9375 1.46875 -2.75 1.46875q-1.171875 0 -2.171875 -0.640625q-0.984375 -0.65625 -1.53125 -1.8125q-0.53125 -1.171875 -0.53125 -2.6875q0 -1.46875 0.484375 -2.671875q0.5 -1.203125 1.46875 -1.84375q0.984375 -0.640625 2.203125 -0.640625q0.890625 0 1.578125 0.375q0.703125 0.375 1.140625 0.984375l0 -4.875l1.65625 0l0 13.59375l-1.546875 0zm-5.28125 -4.921875q0 1.890625 0.796875 2.828125q0.8125 0.9375 1.890625 0.9375q1.09375 0 1.859375 -0.890625q0.765625 -0.890625 0.765625 -2.734375q0 -2.015625 -0.78125 -2.953125q-0.78125 -0.953125 -1.921875 -0.953125q-1.109375 0 -1.859375 0.90625q-0.75 0.90625 -0.75 2.859375zm9.250717 4.921875l0 -9.859375l1.5 0l0 1.5q0.578125 -1.046875 1.0625 -1.375q0.484375 -0.34375 1.078125 -0.34375q0.84375 0 1.71875 0.546875l-0.578125 1.546875q-0.609375 -0.359375 -1.234375 -0.359375q-0.546875 0 -0.984375 0.328125q-0.421875 0.328125 -0.609375 0.90625q-0.28125 0.890625 -0.28125 1.953125l0 5.15625l-1.671875 0zm12.665802 -1.21875q-0.9375 0.796875 -1.796875 1.125q-0.859375 0.3125 -1.84375 0.3125q-1.609375 0 -2.484375 -0.78125q-0.875 -0.796875 -0.875 -2.03125q0 -0.734375 0.328125 -1.328125q0.328125 -0.59375 0.859375 -0.953125q0.53125 -0.359375 1.203125 -0.546875q0.5 -0.140625 1.484375 -0.25q2.03125 -0.25 2.984375 -0.578125q0 -0.34375 0 -0.4375q0 -1.015625 -0.46875 -1.4375q-0.640625 -0.5625 -1.90625 -0.5625q-1.171875 0 -1.734375 0.40625q-0.5625 0.40625 -0.828125 1.46875l-1.640625 -0.234375q0.234375 -1.046875 0.734375 -1.6875q0.515625 -0.640625 1.46875 -0.984375q0.96875 -0.359375 2.25 -0.359375q1.265625 0 2.046875 0.296875q0.78125 0.296875 1.15625 0.75q0.375 0.453125 0.515625 1.140625q0.09375 0.421875 0.09375 1.53125l0 2.234375q0 2.328125 0.09375 2.953125q0.109375 0.609375 0.4375 1.171875l-1.75 0q-0.265625 -0.515625 -0.328125 -1.21875zm-0.140625 -3.71875q-0.90625 0.359375 -2.734375 0.625q-1.03125 0.140625 -1.453125 0.328125q-0.421875 0.1875 -0.65625 0.546875q-0.234375 0.359375 -0.234375 0.796875q0 0.671875 0.5 1.125q0.515625 0.4375 1.484375 0.4375q0.96875 0 1.71875 -0.421875q0.75 -0.4375 1.109375 -1.15625q0.265625 -0.578125 0.265625 -1.671875l0 -0.609375zm5.906967 4.9375l-3.015625 -9.859375l1.71875 0l1.5625 5.6875l0.59375 2.125q0.03125 -0.15625 0.5 -2.03125l1.578125 -5.78125l1.71875 0l1.46875 5.71875l0.484375 1.890625l0.578125 -1.90625l1.6875 -5.703125l1.625 0l-3.078125 9.859375l-1.734375 0l-1.578125 -5.90625l-0.375 -1.671875l-2.0 7.578125l-1.734375 0zm11.660446 -11.6875l0 -1.90625l1.671875 0l0 1.90625l-1.671875 0zm0 11.6875l0 -9.859375l1.671875 0l0 9.859375l-1.671875 0zm4.129196 0l0 -9.859375l1.5 0l0 1.40625q1.09375 -1.625 3.140625 -1.625q0.890625 0 1.640625 0.328125q0.75 0.3125 1.109375 0.84375q0.375 0.515625 0.53125 1.21875q0.09375 0.46875 0.09375 1.625l0 6.0625l-1.671875 0l0 -6.0q0 -1.015625 -0.203125 -1.515625q-0.1875 -0.515625 -0.6875 -0.8125q-0.5 -0.296875 -1.171875 -0.296875q-1.0625 0 -1.84375 0.671875q-0.765625 0.671875 -0.765625 2.578125l0 5.375l-1.671875 0zm10.078842 0.8125l1.609375 0.25q0.109375 0.75 0.578125 1.09375q0.609375 0.453125 1.6875 0.453125q1.171875 0 1.796875 -0.46875q0.625 -0.453125 0.859375 -1.28125q0.125 -0.515625 0.109375 -2.15625q-1.09375 1.296875 -2.71875 1.296875q-2.03125 0 -3.15625 -1.46875q-1.109375 -1.46875 -1.109375 -3.515625q0 -1.40625 0.515625 -2.59375q0.515625 -1.203125 1.484375 -1.84375q0.96875 -0.65625 2.265625 -0.65625q1.75 0 2.875 1.40625l0 -1.1875l1.546875 0l0 8.515625q0 2.3125 -0.46875 3.265625q-0.46875 0.96875 -1.484375 1.515625q-1.015625 0.5625 -2.5 0.5625q-1.765625 0 -2.859375 -0.796875q-1.078125 -0.796875 -1.03125 -2.390625zm1.375 -5.921875q0 1.953125 0.765625 2.84375q0.78125 0.890625 1.9375 0.890625q1.140625 0 1.921875 -0.890625q0.78125 -0.890625 0.78125 -2.78125q0 -1.8125 -0.8125 -2.71875q-0.796875 -0.921875 -1.921875 -0.921875q-1.109375 0 -1.890625 0.90625q-0.78125 0.890625 -0.78125 2.671875zm14.449646 5.109375l0 -13.59375l1.671875 0l0 13.59375l-1.671875 0zm4.191696 -11.6875l0 -1.90625l1.671875 0l0 1.90625l-1.671875 0zm0 11.6875l0 -9.859375l1.671875 0l0 9.859375l-1.671875 0zm6.863571 0l-3.75 -9.859375l1.765625 0l2.125 5.90625q0.34375 0.953125 0.625 1.984375q0.21875 -0.78125 0.625 -1.875l2.1875 -6.015625l1.71875 0l-3.734375 9.859375l-1.5625 0zm13.34375 -3.171875l1.71875 0.21875q-0.40625 1.5 -1.515625 2.34375q-1.09375 0.828125 -2.8125 0.828125q-2.15625 0 -3.421875 -1.328125q-1.265625 -1.328125 -1.265625 -3.734375q0 -2.484375 1.265625 -3.859375q1.28125 -1.375 3.328125 -1.375q1.984375 0 3.234375 1.34375q1.25 1.34375 1.25 3.796875q0 0.140625 -0.015625 0.4375l-7.34375 0q0.09375 1.625 0.921875 2.484375q0.828125 0.859375 2.0625 0.859375q0.90625 0 1.546875 -0.46875q0.65625 -0.484375 1.046875 -1.546875zm-5.484375 -2.703125l5.5 0q-0.109375 -1.234375 -0.625 -1.859375q-0.796875 -0.96875 -2.078125 -0.96875q-1.140625 0 -1.9375 0.78125q-0.78125 0.765625 -0.859375 2.046875zm8.438217 2.9375l1.65625 -0.265625q0.140625 1.0 0.765625 1.53125q0.640625 0.515625 1.78125 0.515625q1.15625 0 1.703125 -0.46875q0.5625 -0.46875 0.5625 -1.09375q0 -0.5625 -0.484375 -0.890625q-0.34375 -0.21875 -1.703125 -0.5625q-1.84375 -0.46875 -2.5625 -0.796875q-0.703125 -0.34375 -1.078125 -0.9375q-0.359375 -0.609375 -0.359375 -1.328125q0 -0.65625 0.296875 -1.21875q0.3125 -0.5625 0.828125 -0.9375q0.390625 -0.28125 1.0625 -0.484375q0.671875 -0.203125 1.4375 -0.203125q1.171875 0 2.046875 0.34375q0.875 0.328125 1.28125 0.90625q0.421875 0.5625 0.578125 1.515625l-1.625 0.21875q-0.109375 -0.75 -0.65625 -1.171875q-0.53125 -0.4375 -1.5 -0.4375q-1.15625 0 -1.640625 0.390625q-0.484375 0.375 -0.484375 0.875q0 0.328125 0.203125 0.59375q0.203125 0.265625 0.640625 0.4375q0.25 0.09375 1.46875 0.4375q1.765625 0.46875 2.46875 0.765625q0.703125 0.296875 1.09375 0.875q0.40625 0.578125 0.40625 1.4375q0 0.828125 -0.484375 1.578125q-0.484375 0.734375 -1.40625 1.140625q-0.921875 0.390625 -2.078125 0.390625q-1.921875 0 -2.9375 -0.796875q-1.0 -0.796875 -1.28125 -2.359375zm21.620804 1.71875q-0.9375 0.796875 -1.796875 1.125q-0.859375 0.3125 -1.84375 0.3125q-1.609375 0 -2.484375 -0.78125q-0.875 -0.796875 -0.875 -2.03125q0 -0.734375 0.328125 -1.328125q0.328125 -0.59375 0.859375 -0.953125q0.53125 -0.359375 1.203125 -0.546875q0.5 -0.140625 1.484375 -0.25q2.03125 -0.25 2.984375 -0.578125q0 -0.34375 0 -0.4375q0 -1.015625 -0.46875 -1.4375q-0.640625 -0.5625 -1.90625 -0.5625q-1.171875 0 -1.734375 0.40625q-0.5625 0.40625 -0.828125 1.46875l-1.640625 -0.234375q0.234375 -1.046875 0.734375 -1.6875q0.515625 -0.640625 1.46875 -0.984375q0.96875 -0.359375 2.25 -0.359375q1.265625 0 2.046875 0.296875q0.78125 0.296875 1.15625 0.75q0.375 0.453125 0.515625 1.140625q0.09375 0.421875 0.09375 1.53125l0 2.234375q0 2.328125 0.09375 2.953125q0.109375 0.609375 0.4375 1.171875l-1.75 0q-0.265625 -0.515625 -0.328125 -1.21875zm-0.140625 -3.71875q-0.90625 0.359375 -2.734375 0.625q-1.03125 0.140625 -1.453125 0.328125q-0.421875 0.1875 -0.65625 0.546875q-0.234375 0.359375 -0.234375 0.796875q0 0.671875 0.5 1.125q0.515625 0.4375 1.484375 0.4375q0.96875 0 1.71875 -0.421875q0.75 -0.4375 1.109375 -1.15625q0.265625 -0.578125 0.265625 -1.671875l0 -0.609375zm7.735092 3.4375l0.234375 1.484375q-0.703125 0.140625 -1.265625 0.140625q-0.90625 0 -1.40625 -0.28125q-0.5 -0.296875 -0.703125 -0.75q-0.203125 -0.46875 -0.203125 -1.984375l0 -5.65625l-1.234375 0l0 -1.3125l1.234375 0l0 -2.4375l1.65625 -1.0l0 3.4375l1.6875 0l0 1.3125l-1.6875 0l0 5.75q0 0.71875 0.078125 0.921875q0.09375 0.203125 0.296875 0.328125q0.203125 0.125 0.578125 0.125q0.265625 0 0.734375 -0.078125zm1.9958038 -6.453125l0 -1.90625l1.90625 0l0 1.90625l-1.90625 0zm0 7.953125l0 -1.90625l1.90625 0l0 1.90625l-1.90625 0z" fill-rule="nonzero"></path><path fill="#000000" d="m9.25 226.52104l0 -13.59375l1.671875 0l0 4.875q1.171875 -1.359375 2.953125 -1.359375q1.09375 0 1.890625 0.4375q0.8125 0.421875 1.15625 1.1875q0.359375 0.765625 0.359375 2.203125l0 6.25l-1.671875 0l0 -6.25q0 -1.25 -0.546875 -1.8125q-0.546875 -0.578125 -1.53125 -0.578125q-0.75 0 -1.40625 0.390625q-0.640625 0.375 -0.921875 1.046875q-0.28125 0.65625 -0.28125 1.8125l0 5.390625l-1.671875 0zm14.031967 -1.5l0.234375 1.484375q-0.703125 0.140625 -1.265625 0.140625q-0.90625 0 -1.40625 -0.28125q-0.5 -0.296875 -0.703125 -0.75q-0.203125 -0.46875 -0.203125 -1.984375l0 -5.65625l-1.234375 0l0 -1.3125l1.234375 0l0 -2.4375l1.65625 -1.0l0 3.4375l1.6875 0l0 1.3125l-1.6875 0l0 5.75q0 0.71875 0.078125 0.921875q0.09375 0.203125 0.296875 0.328125q0.203125 0.125 0.578125 0.125q0.265625 0 0.734375 -0.078125zm5.183304 0l0.234375 1.484375q-0.703125 0.140625 -1.265625 0.140625q-0.90625 0 -1.40625 -0.28125q-0.5 -0.296875 -0.703125 -0.75q-0.203125 -0.46875 -0.203125 -1.984375l0 -5.65625l-1.234375 0l0 -1.3125l1.234375 0l0 -2.4375l1.65625 -1.0l0 3.4375l1.6875 0l0 1.3125l-1.6875 0l0 5.75q0 0.71875 0.078125 0.921875q0.09375 0.203125 0.296875 0.328125q0.203125 0.125 0.578125 0.125q0.265625 0 0.734375 -0.078125zm1.5270538 5.28125l0 -13.640625l1.53125 0l0 1.28125q0.53125 -0.75 1.203125 -1.125q0.6875 -0.375 1.640625 -0.375q1.265625 0 2.234375 0.65625q0.96875 0.640625 1.453125 1.828125q0.5 1.1875 0.5 2.59375q0 1.515625 -0.546875 2.734375q-0.546875 1.203125 -1.578125 1.84375q-1.03125 0.640625 -2.171875 0.640625q-0.84375 0 -1.515625 -0.34375q-0.65625 -0.359375 -1.078125 -0.890625l0 4.796875l-1.671875 0zm1.515625 -8.65625q0 1.90625 0.765625 2.8125q0.78125 0.90625 1.875 0.90625q1.109375 0 1.890625 -0.9375q0.796875 -0.9375 0.796875 -2.921875q0 -1.875 -0.78125 -2.8125q-0.765625 -0.9375 -1.84375 -0.9375q-1.0625 0 -1.890625 1.0q-0.8125 1.0 -0.8125 2.890625zm8.188217 1.9375l1.65625 -0.265625q0.140625 1.0 0.765625 1.53125q0.640625 0.515625 1.78125 0.515625q1.15625 0 1.703125 -0.46875q0.5625 -0.46875 0.5625 -1.09375q0 -0.5625 -0.484375 -0.890625q-0.34375 -0.21875 -1.703125 -0.5625q-1.84375 -0.46875 -2.5625 -0.796875q-0.703125 -0.34375 -1.078125 -0.9375q-0.359375 -0.609375 -0.359375 -1.328125q0 -0.65625 0.296875 -1.21875q0.3125 -0.5625 0.828125 -0.9375q0.390625 -0.28125 1.0625 -0.484375q0.671875 -0.203125 1.4375 -0.203125q1.171875 0 2.046875 0.34375q0.875 0.328125 1.28125 0.90625q0.421875 0.5625 0.578125 1.515625l-1.625 0.21875q-0.109375 -0.75 -0.65625 -1.171875q-0.53125 -0.4375 -1.5 -0.4375q-1.15625 0 -1.640625 0.390625q-0.484375 0.375 -0.484375 0.875q0 0.328125 0.203125 0.59375q0.203125 0.265625 0.640625 0.4375q0.25 0.09375 1.46875 0.4375q1.765625 0.46875 2.46875 0.765625q0.703125 0.296875 1.09375 0.875q0.40625 0.578125 0.40625 1.4375q0 0.828125 -0.484375 1.578125q-0.484375 0.734375 -1.40625 1.140625q-0.921875 0.390625 -2.078125 0.390625q-1.921875 0 -2.9375 -0.796875q-1.0 -0.796875 -1.28125 -2.359375zm10.46875 -5.015625l0 -1.90625l1.90625 0l0 1.90625l-1.90625 0zm0 7.953125l0 -1.90625l1.90625 0l0 1.90625l-1.90625 0zm3.4645538 0.234375l3.9375 -14.0625l1.34375 0l-3.9375 14.0625l-1.34375 0zm5.183304 0l3.9375 -14.0625l1.34375 0l-3.9375 14.0625l-1.34375 0zm5.761429 -3.171875l1.65625 -0.265625q0.140625 1.0 0.765625 1.53125q0.640625 0.515625 1.78125 0.515625q1.15625 0 1.703125 -0.46875q0.5625 -0.46875 0.5625 -1.09375q0 -0.5625 -0.484375 -0.890625q-0.34375 -0.21875 -1.703125 -0.5625q-1.84375 -0.46875 -2.5625 -0.796875q-0.703125 -0.34375 -1.078125 -0.9375q-0.359375 -0.609375 -0.359375 -1.328125q0 -0.65625 0.296875 -1.21875q0.3125 -0.5625 0.828125 -0.9375q0.390625 -0.28125 1.0625 -0.484375q0.671875 -0.203125 1.4375 -0.203125q1.171875 0 2.046875 0.34375q0.875 0.328125 1.28125 0.90625q0.421875 0.5625 0.578125 1.515625l-1.625 0.21875q-0.109375 -0.75 -0.65625 -1.171875q-0.53125 -0.4375 -1.5 -0.4375q-1.15625 0 -1.640625 0.390625q-0.484375 0.375 -0.484375 0.875q0 0.328125 0.203125 0.59375q0.203125 0.265625 0.640625 0.4375q0.25 0.09375 1.46875 0.4375q1.765625 0.46875 2.46875 0.765625q0.703125 0.296875 1.09375 0.875q0.40625 0.578125 0.40625 1.4375q0 0.828125 -0.484375 1.578125q-0.484375 0.734375 -1.40625 1.140625q-0.921875 0.390625 -2.078125 0.390625q-1.921875 0 -2.9375 -0.796875q-1.0 -0.796875 -1.28125 -2.359375zm10.015625 -8.75l0 -1.90625l1.671875 0l0 1.90625l-1.671875 0zm0 11.6875l0 -9.859375l1.671875 0l0 9.859375l-1.671875 0zm7.785446 -1.5l0.234375 1.484375q-0.703125 0.140625 -1.265625 0.140625q-0.90625 0 -1.40625 -0.28125q-0.5 -0.296875 -0.703125 -0.75q-0.203125 -0.46875 -0.203125 -1.984375l0 -5.65625l-1.234375 0l0 -1.3125l1.234375 0l0 -2.4375l1.65625 -1.0l0 3.4375l1.6875 0l0 1.3125l-1.6875 0l0 5.75q0 0.71875 0.078125 0.921875q0.09375 0.203125 0.296875 0.328125q0.203125 0.125 0.578125 0.125q0.265625 0 0.734375 -0.078125zm8.277054 -1.671875l1.71875 0.21875q-0.40625 1.5 -1.515625 2.34375q-1.09375 0.828125 -2.8125 0.828125q-2.15625 0 -3.421875 -1.328125q-1.265625 -1.328125 -1.265625 -3.734375q0 -2.484375 1.265625 -3.859375q1.28125 -1.375 3.328125 -1.375q1.984375 0 3.234375 1.34375q1.25 1.34375 1.25 3.796875q0 0.140625 -0.015625 0.4375l-7.34375 0q0.09375 1.625 0.921875 2.484375q0.828125 0.859375 2.0625 0.859375q0.90625 0 1.546875 -0.46875q0.65625 -0.484375 1.046875 -1.546875zm-5.484375 -2.703125l5.5 0q-0.109375 -1.234375 -0.625 -1.859375q-0.796875 -0.96875 -2.078125 -0.96875q-1.140625 0 -1.9375 0.78125q-0.78125 0.765625 -0.859375 2.046875zm8.438217 2.9375l1.65625 -0.265625q0.140625 1.0 0.765625 1.53125q0.640625 0.515625 1.78125 0.515625q1.15625 0 1.703125 -0.46875q0.5625 -0.46875 0.5625 -1.09375q0 -0.5625 -0.484375 -0.890625q-0.34375 -0.21875 -1.703125 -0.5625q-1.84375 -0.46875 -2.5625 -0.796875q-0.703125 -0.34375 -1.078125 -0.9375q-0.359375 -0.609375 -0.359375 -1.328125q0 -0.65625 0.296875 -1.21875q0.3125 -0.5625 0.828125 -0.9375q0.390625 -0.28125 1.0625 -0.484375q0.671875 -0.203125 1.4375 -0.203125q1.171875 0 2.046875 0.34375q0.875 0.328125 1.28125 0.90625q0.421875 0.5625 0.578125 1.515625l-1.625 0.21875q-0.109375 -0.75 -0.65625 -1.171875q-0.53125 -0.4375 -1.5 -0.4375q-1.15625 0 -1.640625 0.390625q-0.484375 0.375 -0.484375 0.875q0 0.328125 0.203125 0.59375q0.203125 0.265625 0.640625 0.4375q0.25 0.09375 1.46875 0.4375q1.765625 0.46875 2.46875 0.765625q0.703125 0.296875 1.09375 0.875q0.40625 0.578125 0.40625 1.4375q0 0.828125 -0.484375 1.578125q-0.484375 0.734375 -1.40625 1.140625q-0.921875 0.390625 -2.078125 0.390625q-1.921875 0 -2.9375 -0.796875q-1.0 -0.796875 -1.28125 -2.359375zm10.46875 2.9375l0 -1.90625l1.90625 0l0 1.90625l-1.90625 0zm4.417679 0.8125l1.609375 0.25q0.109375 0.75 0.578125 1.09375q0.609375 0.453125 1.6875 0.453125q1.171875 0 1.796875 -0.46875q0.625 -0.453125 0.859375 -1.28125q0.125 -0.515625 0.109375 -2.15625q-1.09375 1.296875 -2.71875 1.296875q-2.03125 0 -3.15625 -1.46875q-1.109375 -1.46875 -1.109375 -3.515625q0 -1.40625 0.515625 -2.59375q0.515625 -1.203125 1.484375 -1.84375q0.96875 -0.65625 2.265625 -0.65625q1.75 0 2.875 1.40625l0 -1.1875l1.546875 0l0 8.515625q0 2.3125 -0.46875 3.265625q-0.46875 0.96875 -1.484375 1.515625q-1.015625 0.5625 -2.5 0.5625q-1.765625 0 -2.859375 -0.796875q-1.078125 -0.796875 -1.03125 -2.390625zm1.375 -5.921875q0 1.953125 0.765625 2.84375q0.78125 0.890625 1.9375 0.890625q1.140625 0 1.921875 -0.890625q0.78125 -0.890625 0.78125 -2.78125q0 -1.8125 -0.8125 -2.71875q-0.796875 -0.921875 -1.921875 -0.921875q-1.109375 0 -1.890625 0.90625q-0.78125 0.890625 -0.78125 2.671875zm8.672592 0.1875q0 -2.734375 1.53125 -4.0625q1.265625 -1.09375 3.09375 -1.09375q2.03125 0 3.3125 1.34375q1.296875 1.328125 1.296875 3.671875q0 1.90625 -0.578125 3.0q-0.5625 1.078125 -1.65625 1.6875q-1.078125 0.59375 -2.375 0.59375q-2.0625 0 -3.34375 -1.328125q-1.28125 -1.328125 -1.28125 -3.8125zm1.71875 0q0 1.890625 0.828125 2.828125q0.828125 0.9375 2.078125 0.9375q1.25 0 2.0625 -0.9375q0.828125 -0.953125 0.828125 -2.890625q0 -1.828125 -0.828125 -2.765625q-0.828125 -0.9375 -2.0625 -0.9375q-1.25 0 -2.078125 0.9375q-0.828125 0.9375 -0.828125 2.828125zm8.656967 0q0 -2.734375 1.53125 -4.0625q1.265625 -1.09375 3.09375 -1.09375q2.03125 0 3.3125 1.34375q1.296875 1.328125 1.296875 3.671875q0 1.90625 -0.578125 3.0q-0.5625 1.078125 -1.65625 1.6875q-1.078125 0.59375 -2.375 0.59375q-2.0625 0 -3.34375 -1.328125q-1.28125 -1.328125 -1.28125 -3.8125zm1.71875 0q0 1.890625 0.828125 2.828125q0.828125 0.9375 2.078125 0.9375q1.25 0 2.0625 -0.9375q0.828125 -0.953125 0.828125 -2.890625q0 -1.828125 -0.828125 -2.765625q-0.828125 -0.9375 -2.0625 -0.9375q-1.25 0 -2.078125 0.9375q-0.828125 0.9375 -0.828125 2.828125zm8.985092 5.734375l1.609375 0.25q0.109375 0.75 0.578125 1.09375q0.609375 0.453125 1.6875 0.453125q1.171875 0 1.796875 -0.46875q0.625 -0.453125 0.859375 -1.28125q0.125 -0.515625 0.109375 -2.15625q-1.09375 1.296875 -2.71875 1.296875q-2.03125 0 -3.15625 -1.46875q-1.109375 -1.46875 -1.109375 -3.515625q0 -1.40625 0.515625 -2.59375q0.515625 -1.203125 1.484375 -1.84375q0.96875 -0.65625 2.265625 -0.65625q1.75 0 2.875 1.40625l0 -1.1875l1.546875 0l0 8.515625q0 2.3125 -0.46875 3.265625q-0.46875 0.96875 -1.484375 1.515625q-1.015625 0.5625 -2.5 0.5625q-1.765625 0 -2.859375 -0.796875q-1.078125 -0.796875 -1.03125 -2.390625zm1.375 -5.921875q0 1.953125 0.765625 2.84375q0.78125 0.890625 1.9375 0.890625q1.140625 0 1.921875 -0.890625q0.78125 -0.890625 0.78125 -2.78125q0 -1.8125 -0.8125 -2.71875q-0.796875 -0.921875 -1.921875 -0.921875q-1.109375 0 -1.890625 0.90625q-0.78125 0.890625 -0.78125 2.671875zm9.266342 5.109375l0 -13.59375l1.671875 0l0 13.59375l-1.671875 0zm10.926071 -3.171875l1.71875 0.21875q-0.40625 1.5 -1.515625 2.34375q-1.09375 0.828125 -2.8125 0.828125q-2.15625 0 -3.421875 -1.328125q-1.265625 -1.328125 -1.265625 -3.734375q0 -2.484375 1.265625 -3.859375q1.28125 -1.375 3.328125 -1.375q1.984375 0 3.234375 1.34375q1.25 1.34375 1.25 3.796875q0 0.140625 -0.015625 0.4375l-7.34375 0q0.09375 1.625 0.921875 2.484375q0.828125 0.859375 2.0625 0.859375q0.90625 0 1.546875 -0.46875q0.65625 -0.484375 1.046875 -1.546875zm-5.484375 -2.703125l5.5 0q-0.109375 -1.234375 -0.625 -1.859375q-0.796875 -0.96875 -2.078125 -0.96875q-1.140625 0 -1.9375 0.78125q-0.78125 0.765625 -0.859375 2.046875zm9.578842 5.875l0 -1.90625l1.90625 0l0 1.90625l-1.90625 0zm11.152054 -3.609375l1.640625 0.21875q-0.265625 1.6875 -1.375 2.65625q-1.109375 0.953125 -2.734375 0.953125q-2.015625 0 -3.25 -1.3125q-1.21875 -1.328125 -1.21875 -3.796875q0 -1.59375 0.515625 -2.78125q0.53125 -1.203125 1.609375 -1.796875q1.09375 -0.609375 2.359375 -0.609375q1.609375 0 2.625 0.8125q1.015625 0.8125 1.3125 2.3125l-1.625 0.25q-0.234375 -1.0 -0.828125 -1.5q-0.59375 -0.5 -1.421875 -0.5q-1.265625 0 -2.0625 0.90625q-0.78125 0.90625 -0.78125 2.859375q0 1.984375 0.765625 2.890625q0.765625 0.890625 1.984375 0.890625q0.984375 0 1.640625 -0.59375q0.65625 -0.609375 0.84375 -1.859375zm2.265625 -1.3125q0 -2.734375 1.53125 -4.0625q1.265625 -1.09375 3.09375 -1.09375q2.03125 0 3.3125 1.34375q1.296875 1.328125 1.296875 3.671875q0 1.90625 -0.578125 3.0q-0.5625 1.078125 -1.65625 1.6875q-1.078125 0.59375 -2.375 0.59375q-2.0625 0 -3.34375 -1.328125q-1.28125 -1.328125 -1.28125 -3.8125zm1.71875 0q0 1.890625 0.828125 2.828125q0.828125 0.9375 2.078125 0.9375q1.25 0 2.0625 -0.9375q0.828125 -0.953125 0.828125 -2.890625q0 -1.828125 -0.828125 -2.765625q-0.828125 -0.9375 -2.0625 -0.9375q-1.25 0 -2.078125 0.9375q-0.828125 0.9375 -0.828125 2.828125zm9.281967 4.921875l0 -9.859375l1.5 0l0 1.390625q0.453125 -0.71875 1.21875 -1.15625q0.78125 -0.453125 1.765625 -0.453125q1.09375 0 1.796875 0.453125q0.703125 0.453125 0.984375 1.28125q1.171875 -1.734375 3.046875 -1.734375q1.46875 0 2.25 0.8125q0.796875 0.8125 0.796875 2.5l0 6.765625l-1.671875 0l0 -6.203125q0 -1.0 -0.15625 -1.4375q-0.15625 -0.453125 -0.59375 -0.71875q-0.421875 -0.265625 -1.0 -0.265625q-1.03125 0 -1.71875 0.6875q-0.6875 0.6875 -0.6875 2.21875l0 5.71875l-1.671875 0l0 -6.40625q0 -1.109375 -0.40625 -1.65625q-0.40625 -0.5625 -1.34375 -0.5625q-0.703125 0 -1.3125 0.375q-0.59375 0.359375 -0.859375 1.078125q-0.265625 0.71875 -0.265625 2.0625l0 5.109375l-1.671875 0zm14.290802 0.234375l3.9375 -14.0625l1.34375 0l-3.9375 14.0625l-1.34375 0zm5.761429 -3.171875l1.65625 -0.265625q0.140625 1.0 0.765625 1.53125q0.640625 0.515625 1.78125 0.515625q1.15625 0 1.703125 -0.46875q0.5625 -0.46875 0.5625 -1.09375q0 -0.5625 -0.484375 -0.890625q-0.34375 -0.21875 -1.703125 -0.5625q-1.84375 -0.46875 -2.5625 -0.796875q-0.703125 -0.34375 -1.078125 -0.9375q-0.359375 -0.609375 -0.359375 -1.328125q0 -0.65625 0.296875 -1.21875q0.3125 -0.5625 0.828125 -0.9375q0.390625 -0.28125 1.0625 -0.484375q0.671875 -0.203125 1.4375 -0.203125q1.171875 0 2.046875 0.34375q0.875 0.328125 1.28125 0.90625q0.421875 0.5625 0.578125 1.515625l-1.625 0.21875q-0.109375 -0.75 -0.65625 -1.171875q-0.53125 -0.4375 -1.5 -0.4375q-1.15625 0 -1.640625 0.390625q-0.484375 0.375 -0.484375 0.875q0 0.328125 0.203125 0.59375q0.203125 0.265625 0.640625 0.4375q0.25 0.09375 1.46875 0.4375q1.765625 0.46875 2.46875 0.765625q0.703125 0.296875 1.09375 0.875q0.40625 0.578125 0.40625 1.4375q0 0.828125 -0.484375 1.578125q-0.484375 0.734375 -1.40625 1.140625q-0.921875 0.390625 -2.078125 0.390625q-1.921875 0 -2.9375 -0.796875q-1.0 -0.796875 -1.28125 -2.359375zm10.015625 -8.75l0 -1.90625l1.671875 0l0 1.90625l-1.671875 0zm0 11.6875l0 -9.859375l1.671875 0l0 9.859375l-1.671875 0zm7.785446 -1.5l0.234375 1.484375q-0.703125 0.140625 -1.265625 0.140625q-0.90625 0 -1.40625 -0.28125q-0.5 -0.296875 -0.703125 -0.75q-0.203125 -0.46875 -0.203125 -1.984375l0 -5.65625l-1.234375 0l0 -1.3125l1.234375 0l0 -2.4375l1.65625 -1.0l0 3.4375l1.6875 0l0 1.3125l-1.6875 0l0 5.75q0 0.71875 0.078125 0.921875q0.09375 0.203125 0.296875 0.328125q0.203125 0.125 0.578125 0.125q0.265625 0 0.734375 -0.078125zm8.277054 -1.671875l1.71875 0.21875q-0.40625 1.5 -1.515625 2.34375q-1.09375 0.828125 -2.8125 0.828125q-2.15625 0 -3.421875 -1.328125q-1.265625 -1.328125 -1.265625 -3.734375q0 -2.484375 1.265625 -3.859375q1.28125 -1.375 3.328125 -1.375q1.984375 0 3.234375 1.34375q1.25 1.34375 1.25 3.796875q0 0.140625 -0.015625 0.4375l-7.34375 0q0.09375 1.625 0.921875 2.484375q0.828125 0.859375 2.0625 0.859375q0.90625 0 1.546875 -0.46875q0.65625 -0.484375 1.046875 -1.546875zm-5.484375 -2.703125l5.5 0q-0.109375 -1.234375 -0.625 -1.859375q-0.796875 -0.96875 -2.078125 -0.96875q-1.140625 0 -1.9375 0.78125q-0.78125 0.765625 -0.859375 2.046875zm7.860092 6.109375l3.9375 -14.0625l1.34375 0l-3.9375 14.0625l-1.34375 0zm6.433304 3.546875l0 -13.640625l1.53125 0l0 1.28125q0.53125 -0.75 1.203125 -1.125q0.6875 -0.375 1.640625 -0.375q1.265625 0 2.234375 0.65625q0.96875 0.640625 1.453125 1.828125q0.5 1.1875 0.5 2.59375q0 1.515625 -0.546875 2.734375q-0.546875 1.203125 -1.578125 1.84375q-1.03125 0.640625 -2.171875 0.640625q-0.84375 0 -1.515625 -0.34375q-0.65625 -0.359375 -1.078125 -0.890625l0 4.796875l-1.671875 0zm1.515625 -8.65625q0 1.90625 0.765625 2.8125q0.78125 0.90625 1.875 0.90625q1.109375 0 1.890625 -0.9375q0.796875 -0.9375 0.796875 -2.921875q0 -1.875 -0.78125 -2.8125q-0.765625 -0.9375 -1.84375 -0.9375q-1.0625 0 -1.890625 1.0q-0.8125 1.0 -0.8125 2.890625zm8.828842 4.875l0 -13.59375l1.6718903 0l0 13.59375l-1.6718903 0zm3.5510712 -4.921875q0 -2.734375 1.53125 -4.0625q1.265625 -1.09375 3.09375 -1.09375q2.03125 0 3.3125 1.34375q1.296875 1.328125 1.296875 3.671875q0 1.90625 -0.578125 3.0q-0.5625 1.078125 -1.65625 1.6875q-1.078125 0.59375 -2.375 0.59375q-2.0625 0 -3.34375 -1.328125q-1.28125 -1.328125 -1.28125 -3.8125zm1.71875 0q0 1.890625 0.828125 2.828125q0.828125 0.9375 2.078125 0.9375q1.25 0 2.0625 -0.9375q0.828125 -0.953125 0.828125 -2.890625q0 -1.828125 -0.828125 -2.765625q-0.828125 -0.9375 -2.0625 -0.9375q-1.25 0 -2.078125 0.9375q-0.828125 0.9375 -0.828125 2.828125zm12.016327 4.921875l-3.75 -9.859375l1.765625 0l2.125 5.90625q0.34375 0.953125 0.625 1.984375q0.21875 -0.78125 0.625 -1.875l2.1875 -6.015625l1.71875 0l-3.734375 9.859375l-1.5625 0zm13.34375 -3.171875l1.71875 0.21875q-0.40625 1.5 -1.515625 2.34375q-1.09375 0.828125 -2.8125 0.828125q-2.15625 0 -3.421875 -1.328125q-1.265625 -1.328125 -1.265625 -3.734375q0 -2.484375 1.265625 -3.859375q1.28125 -1.375 3.328125 -1.375q1.984375 0 3.234375 1.34375q1.25 1.34375 1.25 3.796875q0 0.140625 -0.015625 0.4375l-7.34375 0q0.09375 1.625 0.921875 2.484375q0.828125 0.859375 2.0625 0.859375q0.90625 0 1.546875 -0.46875q0.65625 -0.484375 1.046875 -1.546875zm-5.484375 -2.703125l5.5 0q-0.109375 -1.234375 -0.625 -1.859375q-0.796875 -0.96875 -2.078125 -0.96875q-1.140625 0 -1.9375 0.78125q-0.78125 0.765625 -0.859375 2.046875zm9.094482 5.875l0 -9.859375l1.5 0l0 1.5q0.578125 -1.046875 1.0625 -1.375q0.484375 -0.34375 1.078125 -0.34375q0.84375 0 1.71875 0.546875l-0.578125 1.546875q-0.609375 -0.359375 -1.234375 -0.359375q-0.546875 0 -0.984375 0.328125q-0.421875 0.328125 -0.609375 0.90625q-0.28125 0.890625 -0.28125 1.953125l0 5.15625l-1.671875 0zm12.618927 0l0 -1.25q-0.9375 1.46875 -2.75 1.46875q-1.171875 0 -2.171875 -0.640625q-0.984375 -0.65625 -1.53125 -1.8125q-0.53125 -1.171875 -0.53125 -2.6875q0 -1.46875 0.484375 -2.671875q0.5 -1.203125 1.46875 -1.84375q0.984375 -0.640625 2.203125 -0.640625q0.890625 0 1.578125 0.375q0.703125 0.375 1.140625 0.984375l0 -4.875l1.65625 0l0 13.59375l-1.546875 0zm-5.28125 -4.921875q0 1.890625 0.796875 2.828125q0.8125 0.9375 1.890625 0.9375q1.09375 0 1.859375 -0.890625q0.765625 -0.890625 0.765625 -2.734375q0 -2.015625 -0.78125 -2.953125q-0.78125 -0.953125 -1.921875 -0.953125q-1.109375 0 -1.859375 0.90625q-0.75 0.90625 -0.75 2.859375zm8.641327 0q0 -2.734375 1.53125 -4.0625q1.265625 -1.09375 3.09375 -1.09375q2.03125 0 3.3125 1.34375q1.296875 1.328125 1.296875 3.671875q0 1.90625 -0.578125 3.0q-0.5625 1.078125 -1.65625 1.6875q-1.078125 0.59375 -2.375 0.59375q-2.0625 0 -3.34375 -1.328125q-1.28125 -1.328125 -1.28125 -3.8125zm1.71875 0q0 1.890625 0.828125 2.828125q0.828125 0.9375 2.078125 0.9375q1.25 0 2.0625 -0.9375q0.828125 -0.953125 0.828125 -2.890625q0 -1.828125 -0.828125 -2.765625q-0.828125 -0.9375 -2.0625 -0.9375q-1.25 0 -2.078125 0.9375q-0.828125 0.9375 -0.828125 2.828125zm15.719482 1.3125l1.640625 0.21875q-0.265625 1.6875 -1.375 2.65625q-1.109375 0.953125 -2.734375 0.953125q-2.015625 0 -3.25 -1.3125q-1.21875 -1.328125 -1.21875 -3.796875q0 -1.59375 0.515625 -2.78125q0.53125 -1.203125 1.609375 -1.796875q1.09375 -0.609375 2.359375 -0.609375q1.609375 0 2.625 0.8125q1.015625 0.8125 1.3125 2.3125l-1.625 0.25q-0.234375 -1.0 -0.828125 -1.5q-0.59375 -0.5 -1.421875 -0.5q-1.265625 0 -2.0625 0.90625q-0.78125 0.90625 -0.78125 2.859375q0 1.984375 0.765625 2.890625q0.765625 0.890625 1.984375 0.890625q0.984375 0 1.640625 -0.59375q0.65625 -0.609375 0.84375 -1.859375zm1.640625 3.84375l3.9375 -14.0625l1.34375 0l-3.9375 14.0625l-1.34375 0zm6.4020386 -0.234375l0 -13.59375l1.671875 0l0 13.59375l-1.671875 0zm10.926086 -3.171875l1.71875 0.21875q-0.40625 1.5 -1.515625 2.34375q-1.09375 0.828125 -2.8125 0.828125q-2.15625 0 -3.421875 -1.328125q-1.265625 -1.328125 -1.265625 -3.734375q0 -2.484375 1.265625 -3.859375q1.28125 -1.375 3.328125 -1.375q1.984375 0 3.234375 1.34375q1.25 1.34375 1.25 3.796875q0 0.140625 -0.015625 0.4375l-7.34375 0q0.09375 1.625 0.921875 2.484375q0.828125 0.859375 2.0625 0.859375q0.90625 0 1.546875 -0.46875q0.65625 -0.484375 1.046875 -1.546875zm-5.484375 -2.703125l5.5 0q-0.109375 -1.234375 -0.625 -1.859375q-0.796875 -0.96875 -2.078125 -0.96875q-1.140625 0 -1.9375 0.78125q-0.78125 0.765625 -0.859375 2.046875zm8.438232 2.9375l1.65625 -0.265625q0.140625 1.0 0.765625 1.53125q0.640625 0.515625 1.78125 0.515625q1.15625 0 1.703125 -0.46875q0.5625 -0.46875 0.5625 -1.09375q0 -0.5625 -0.484375 -0.890625q-0.34375 -0.21875 -1.703125 -0.5625q-1.84375 -0.46875 -2.5625 -0.796875q-0.703125 -0.34375 -1.078125 -0.9375q-0.359375 -0.609375 -0.359375 -1.328125q0 -0.65625 0.296875 -1.21875q0.3125 -0.5625 0.828125 -0.9375q0.390625 -0.28125 1.0625 -0.484375q0.671875 -0.203125 1.4375 -0.203125q1.171875 0 2.046875 0.34375q0.875 0.328125 1.28125 0.90625q0.421875 0.5625 0.578125 1.515625l-1.625 0.21875q-0.109375 -0.75 -0.65625 -1.171875q-0.53125 -0.4375 -1.5 -0.4375q-1.15625 0 -1.640625 0.390625q-0.484375 0.375 -0.484375 0.875q0 0.328125 0.203125 0.59375q0.203125 0.265625 0.640625 0.4375q0.25 0.09375 1.46875 0.4375q1.765625 0.46875 2.46875 0.765625q0.703125 0.296875 1.09375 0.875q0.40625 0.578125 0.40625 1.4375q0 0.828125 -0.484375 1.578125q-0.484375 0.734375 -1.40625 1.140625q-0.921875 0.390625 -2.078125 0.390625q-1.921875 0 -2.9375 -0.796875q-1.0 -0.796875 -1.28125 -2.359375zm9.328125 0l1.65625 -0.265625q0.140625 1.0 0.765625 1.53125q0.640625 0.515625 1.78125 0.515625q1.15625 0 1.703125 -0.46875q0.5625 -0.46875 0.5625 -1.09375q0 -0.5625 -0.484375 -0.890625q-0.34375 -0.21875 -1.703125 -0.5625q-1.84375 -0.46875 -2.5625 -0.796875q-0.703125 -0.34375 -1.078125 -0.9375q-0.359375 -0.609375 -0.359375 -1.328125q0 -0.65625 0.296875 -1.21875q0.3125 -0.5625 0.828125 -0.9375q0.390625 -0.28125 1.0625 -0.484375q0.671875 -0.203125 1.4375 -0.203125q1.171875 0 2.046875 0.34375q0.875 0.328125 1.28125 0.90625q0.421875 0.5625 0.578125 1.515625l-1.625 0.21875q-0.109375 -0.75 -0.65625 -1.171875q-0.53125 -0.4375 -1.5 -0.4375q-1.15625 0 -1.640625 0.390625q-0.484375 0.375 -0.484375 0.875q0 0.328125 0.203125 0.59375q0.203125 0.265625 0.640625 0.4375q0.25 0.09375 1.46875 0.4375q1.765625 0.46875 2.46875 0.765625q0.703125 0.296875 1.09375 0.875q0.40625 0.578125 0.40625 1.4375q0 0.828125 -0.484375 1.578125q-0.484375 0.734375 -1.40625 1.140625q-0.921875 0.390625 -2.078125 0.390625q-1.921875 0 -2.9375 -0.796875q-1.0 -0.796875 -1.28125 -2.359375zm9.375 -1.984375q0 -2.734375 1.53125 -4.0625q1.265625 -1.09375 3.09375 -1.09375q2.03125 0 3.3125 1.34375q1.296875 1.328125 1.296875 3.671875q0 1.90625 -0.578125 3.0q-0.5625 1.078125 -1.65625 1.6875q-1.078125 0.59375 -2.375 0.59375q-2.0625 0 -3.34375 -1.328125q-1.28125 -1.328125 -1.28125 -3.8125zm1.71875 0q0 1.890625 0.828125 2.828125q0.828125 0.9375 2.078125 0.9375q1.25 0 2.0625 -0.9375q0.828125 -0.953125 0.828125 -2.890625q0 -1.828125 -0.828125 -2.765625q-0.828125 -0.9375 -2.0625 -0.9375q-1.25 0 -2.078125 0.9375q-0.828125 0.9375 -0.828125 2.828125zm9.281982 4.921875l0 -9.859375l1.5 0l0 1.40625q1.09375 -1.625 3.140625 -1.625q0.890625 0 1.640625 0.328125q0.75 0.3125 1.109375 0.84375q0.375 0.515625 0.53125 1.21875q0.09375 0.46875 0.09375 1.625l0 6.0625l-1.671875 0l0 -6.0q0 -1.015625 -0.203125 -1.515625q-0.1875 -0.515625 -0.6875 -0.8125q-0.5 -0.296875 -1.171875 -0.296875q-1.0625 0 -1.84375 0.671875q-0.765625 0.671875 -0.765625 2.578125l0 5.375l-1.671875 0zm9.735107 -4.078125l0 -1.6875l5.125 0l0 1.6875l-5.125 0zm12.681427 4.078125l-1.671875 0l0 -10.640625q-0.59375 0.578125 -1.578125 1.15625q-0.984375 0.5625 -1.765625 0.859375l0 -1.625q1.40625 -0.65625 2.453125 -1.59375q1.046875 -0.9375 1.484375 -1.8125l1.078125 0l0 13.65625zm3.906952 -4.078125l0 -1.6875l5.125 0l0 1.6875l-5.125 0zm7.259552 4.078125l0 -8.546875l-1.484375 0l0 -1.3125l1.484375 0l0 -1.046875q0 -0.984375 0.171875 -1.46875q0.234375 -0.65625 0.84375 -1.046875q0.609375 -0.40625 1.703125 -0.40625q0.703125 0 1.5625 0.15625l-0.25 1.46875q-0.515625 -0.09375 -0.984375 -0.09375q-0.765625 0 -1.078125 0.328125q-0.3125 0.3125 -0.3125 1.203125l0 0.90625l1.921875 0l0 1.3125l-1.921875 0l0 8.546875l-1.65625 0zm4.792694 -11.6875l0 -1.90625l1.671875 0l0 1.90625l-1.671875 0zm0 11.6875l0 -9.859375l1.671875 0l0 9.859375l-1.671875 0zm4.1292114 0l0 -9.859375l1.5 0l0 1.40625q1.09375 -1.625 3.140625 -1.625q0.890625 0 1.640625 0.328125q0.75 0.3125 1.109375 0.84375q0.375 0.515625 0.53125 1.21875q0.09375 0.46875 0.09375 1.625l0 6.0625l-1.671875 0l0 -6.0q0 -1.015625 -0.203125 -1.515625q-0.1875 -0.515625 -0.6875 -0.8125q-0.5 -0.296875 -1.171875 -0.296875q-1.0625 0 -1.84375 0.671875q-0.765625 0.671875 -0.765625 2.578125l0 5.375l-1.671875 0zm10.078857 0.8125l1.609375 0.25q0.109375 0.75 0.578125 1.09375q0.609375 0.453125 1.6875 0.453125q1.171875 0 1.796875 -0.46875q0.625 -0.453125 0.859375 -1.28125q0.125 -0.515625 0.109375 -2.15625q-1.09375 1.296875 -2.71875 1.296875q-2.03125 0 -3.15625 -1.46875q-1.109375 -1.46875 -1.109375 -3.515625q0 -1.40625 0.515625 -2.59375q0.515625 -1.203125 1.484375 -1.84375q0.96875 -0.65625 2.265625 -0.65625q1.75 0 2.875 1.40625l0 -1.1875l1.546875 0l0 8.515625q0 2.3125 -0.46875 3.265625q-0.46875 0.96875 -1.484375 1.515625q-1.015625 0.5625 -2.5 0.5625q-1.765625 0 -2.859375 -0.796875q-1.078125 -0.796875 -1.03125 -2.390625zm1.375 -5.921875q0 1.953125 0.765625 2.84375q0.78125 0.890625 1.9375 0.890625q1.140625 0 1.921875 -0.890625q0.78125 -0.890625 0.78125 -2.78125q0 -1.8125 -0.8125 -2.71875q-0.796875 -0.921875 -1.921875 -0.921875q-1.109375 0 -1.890625 0.90625q-0.78125 0.890625 -0.78125 2.671875zm16.047607 1.9375l1.71875 0.21875q-0.40625 1.5 -1.515625 2.34375q-1.09375 0.828125 -2.8125 0.828125q-2.15625 0 -3.421875 -1.328125q-1.265625 -1.328125 -1.265625 -3.734375q0 -2.484375 1.265625 -3.859375q1.28125 -1.375 3.328125 -1.375q1.984375 0 3.234375 1.34375q1.25 1.34375 1.25 3.796875q0 0.140625 -0.015625 0.4375l-7.34375 0q0.09375 1.625 0.921875 2.484375q0.828125 0.859375 2.0625 0.859375q0.90625 0 1.546875 -0.46875q0.65625 -0.484375 1.046875 -1.546875zm-5.484375 -2.703125l5.5 0q-0.109375 -1.234375 -0.625 -1.859375q-0.796875 -0.96875 -2.078125 -0.96875q-1.140625 0 -1.9375 0.78125q-0.78125 0.765625 -0.859375 2.046875zm9.094482 5.875l0 -9.859375l1.5 0l0 1.5q0.578125 -1.046875 1.0625 -1.375q0.484375 -0.34375 1.078125 -0.34375q0.84375 0 1.71875 0.546875l-0.578125 1.546875q-0.609375 -0.359375 -1.234375 -0.359375q-0.546875 0 -0.984375 0.328125q-0.421875 0.328125 -0.609375 0.90625q-0.28125 0.890625 -0.28125 1.953125l0 5.15625l-1.671875 0zm5.556427 -2.9375l1.65625 -0.265625q0.140625 1.0 0.765625 1.53125q0.640625 0.515625 1.78125 0.515625q1.15625 0 1.703125 -0.46875q0.5625 -0.46875 0.5625 -1.09375q0 -0.5625 -0.484375 -0.890625q-0.34375 -0.21875 -1.703125 -0.5625q-1.84375 -0.46875 -2.5625 -0.796875q-0.703125 -0.34375 -1.078125 -0.9375q-0.359375 -0.609375 -0.359375 -1.328125q0 -0.65625 0.296875 -1.21875q0.3125 -0.5625 0.828125 -0.9375q0.390625 -0.28125 1.0625 -0.484375q0.671875 -0.203125 1.4375 -0.203125q1.171875 0 2.046875 0.34375q0.875 0.328125 1.28125 0.90625q0.421875 0.5625 0.578125 1.515625l-1.625 0.21875q-0.109375 -0.75 -0.65625 -1.171875q-0.53125 -0.4375 -1.5 -0.4375q-1.15625 0 -1.640625 0.390625q-0.484375 0.375 -0.484375 0.875q0 0.328125 0.203125 0.59375q0.203125 0.265625 0.640625 0.4375q0.25 0.09375 1.46875 0.4375q1.765625 0.46875 2.46875 0.765625q0.703125 0.296875 1.09375 0.875q0.40625 0.578125 0.40625 1.4375q0 0.828125 -0.484375 1.578125q-0.484375 0.734375 -1.40625 1.140625q-0.921875 0.390625 -2.078125 0.390625q-1.921875 0 -2.9375 -0.796875q-1.0 -0.796875 -1.28125 -2.359375zm9.359375 -1.140625l0 -1.6875l5.125 0l0 1.6875l-5.125 0zm13.290802 2.859375q-0.9375 0.796875 -1.796875 1.125q-0.859375 0.3125 -1.84375 0.3125q-1.609375 0 -2.484375 -0.78125q-0.875 -0.796875 -0.875 -2.03125q0 -0.734375 0.328125 -1.328125q0.328125 -0.59375 0.859375 -0.953125q0.53125 -0.359375 1.203125 -0.546875q0.5 -0.140625 1.484375 -0.25q2.03125 -0.25 2.984375 -0.578125q0 -0.34375 0 -0.4375q0 -1.015625 -0.46875 -1.4375q-0.640625 -0.5625 -1.90625 -0.5625q-1.171875 0 -1.734375 0.40625q-0.5625 0.40625 -0.828125 1.46875l-1.640625 -0.234375q0.234375 -1.046875 0.734375 -1.6875q0.515625 -0.640625 1.46875 -0.984375q0.96875 -0.359375 2.25 -0.359375q1.265625 0 2.046875 0.296875q0.78125 0.296875 1.15625 0.75q0.375 0.453125 0.515625 1.140625q0.09375 0.421875 0.09375 1.53125l0 2.234375q0 2.328125 0.09375 2.953125q0.109375 0.609375 0.4375 1.171875l-1.75 0q-0.265625 -0.515625 -0.328125 -1.21875zm-0.140625 -3.71875q-0.90625 0.359375 -2.734375 0.625q-1.03125 0.140625 -1.453125 0.328125q-0.421875 0.1875 -0.65625 0.546875q-0.234375 0.359375 -0.234375 0.796875q0 0.671875 0.5 1.125q0.515625 0.4375 1.484375 0.4375q0.96875 0 1.71875 -0.421875q0.75 -0.4375 1.109375 -1.15625q0.265625 -0.578125 0.265625 -1.671875l0 -0.609375zm4.0788574 4.9375l0 -9.859375l1.5 0l0 1.40625q1.09375 -1.625 3.140625 -1.625q0.890625 0 1.640625 0.328125q0.75 0.3125 1.109375 0.84375q0.375 0.515625 0.53125 1.21875q0.09375 0.46875 0.09375 1.625l0 6.0625l-1.671875 0l0 -6.0q0 -1.015625 -0.203125 -1.515625q-0.1875 -0.515625 -0.6875 -0.8125q-0.5 -0.296875 -1.171875 -0.296875q-1.0625 0 -1.84375 0.671875q-0.765625 0.671875 -0.765625 2.578125l0 5.375l-1.671875 0zm16.766357 0l0 -1.25q-0.9375 1.46875 -2.75 1.46875q-1.171875 0 -2.171875 -0.640625q-0.984375 -0.65625 -1.53125 -1.8125q-0.53125 -1.171875 -0.53125 -2.6875q0 -1.46875 0.484375 -2.671875q0.5 -1.203125 1.46875 -1.84375q0.984375 -0.640625 2.203125 -0.640625q0.890625 0 1.578125 0.375q0.703125 0.375 1.140625 0.984375l0 -4.875l1.65625 0l0 13.59375l-1.546875 0zm-5.28125 -4.921875q0 1.890625 0.796875 2.828125q0.8125 0.9375 1.890625 0.9375q1.09375 0 1.859375 -0.890625q0.765625 -0.890625 0.765625 -2.734375q0 -2.015625 -0.78125 -2.953125q-0.78125 -0.953125 -1.921875 -0.953125q-1.109375 0 -1.859375 0.90625q-0.75 0.90625 -0.75 2.859375zm8.625732 0.84375l0 -1.6875l5.125 0l0 1.6875l-5.125 0zm6.868927 4.078125l0 -13.59375l1.671875 0l0 7.75l3.9530945 -4.015625l2.15625 0l-3.765625 3.65625l4.140625 6.203125l-2.0625 0l-3.2499695 -5.03125l-1.171875 1.125l0 3.90625l-1.671875 0zm16.06247 -3.171875l1.71875 0.21875q-0.40625 1.5 -1.515625 2.34375q-1.09375 0.828125 -2.8125 0.828125q-2.15625 0 -3.421875 -1.328125q-1.265625 -1.328125 -1.265625 -3.734375q0 -2.484375 1.265625 -3.859375q1.28125 -1.375 3.328125 -1.375q1.984375 0 3.234375 1.34375q1.25 1.34375 1.25 3.796875q0 0.140625 -0.015625 0.4375l-7.34375 0q0.09375 1.625 0.921875 2.484375q0.828125 0.859375 2.0625 0.859375q0.90625 0 1.546875 -0.46875q0.65625 -0.484375 1.046875 -1.546875zm-5.484375 -2.703125l5.5 0q-0.109375 -1.234375 -0.625 -1.859375q-0.796875 -0.96875 -2.078125 -0.96875q-1.140625 0 -1.9375 0.78125q-0.78125 0.765625 -0.859375 2.046875zm9.031982 9.671875l-0.171875 -1.5625q0.546875 0.140625 0.953125 0.140625q0.546875 0 0.875 -0.1875q0.34375 -0.1875 0.5625 -0.515625q0.15625 -0.25 0.5 -1.25q0.046875 -0.140625 0.15625 -0.40625l-3.734375 -9.875l1.796875 0l2.046875 5.71875q0.40625 1.078125 0.71875 2.28125q0.28125 -1.15625 0.6875 -2.25l2.09375 -5.75l1.671875 0l-3.75 10.03125q-0.59375 1.625 -0.9375 2.234375q-0.4375 0.828125 -1.015625 1.203125q-0.578125 0.390625 -1.375 0.390625q-0.484375 0 -1.078125 -0.203125zm8.734375 -6.734375l1.65625 -0.265625q0.140625 1.0 0.765625 1.53125q0.640625 0.515625 1.78125 0.515625q1.15625 0 1.703125 -0.46875q0.5625 -0.46875 0.5625 -1.09375q0 -0.5625 -0.484375 -0.890625q-0.34375 -0.21875 -1.703125 -0.5625q-1.84375 -0.46875 -2.5625 -0.796875q-0.703125 -0.34375 -1.078125 -0.9375q-0.359375 -0.609375 -0.359375 -1.328125q0 -0.65625 0.296875 -1.21875q0.3125 -0.5625 0.828125 -0.9375q0.390625 -0.28125 1.0625 -0.484375q0.671875 -0.203125 1.4375 -0.203125q1.171875 0 2.046875 0.34375q0.875 0.328125 1.28125 0.90625q0.421875 0.5625 0.578125 1.515625l-1.625 0.21875q-0.109375 -0.75 -0.65625 -1.171875q-0.53125 -0.4375 -1.5 -0.4375q-1.15625 0 -1.640625 0.390625q-0.484375 0.375 -0.484375 0.875q0 0.328125 0.203125 0.59375q0.203125 0.265625 0.640625 0.4375q0.25 0.09375 1.46875 0.4375q1.765625 0.46875 2.46875 0.765625q0.703125 0.296875 1.09375 0.875q0.40625 0.578125 0.40625 1.4375q0 0.828125 -0.484375 1.578125q-0.484375 0.734375 -1.40625 1.140625q-0.921875 0.390625 -2.078125 0.390625q-1.921875 0 -2.9375 -0.796875q-1.0 -0.796875 -1.28125 -2.359375z" fill-rule="nonzero"></path></g></svg>

